<?xml version="1.0" encoding="utf-8"?>
<!-- Generator: Adobe Illustrator 24.1.0, SVG Export Plug-In . SVG Version: 6.00 Build 0)  -->
<svg version="1.1" id="Layer_1" xmlns="http://www.w3.org/2000/svg" xmlns:xlink="http://www.w3.org/1999/xlink" x="0px" y="0px"
	 viewBox="0 0 800 816" style="enable-background:new 0 0 800 816;" xml:space="preserve">
<style type="text/css">
	.st0{fill:#FFFFFF;}
	.st1{fill:#EA580C;}
</style>
<g>
	<polygon class="st0" points="720,0 640,0 560,0 480,0 400,0 320,0 240,0 160,0 80,0 0,0 0,48 0,96 0,144 0,192 0,240 0,288 0,336 
		0,384 0,432 0,480 0,528 0,576 0,624 0,672 0,720 0,768 0,816 80,816 160,816 240,816 320,816 400,816 480,816 560,816 640,816 
		720,816 800,816 800,768 800,720 800,672 800,624 800,576 800,528 800,480 800,432 800,384 800,336 800,288 800,240 800,192 
		800,144 800,96 800,48 800,0 	"/>
	<g>
		<path class="st1" d="M765,4c-2.93-2.34-7.08-2.34-10.01,0l-35,28L685,4c-2.93-2.34-7.08-2.34-10.01,0l-35,28L605,4
			c-2.93-2.34-7.08-2.34-10.01,0l-35,28L525,4c-2.93-2.34-7.08-2.34-10.01,0l-35,28L445,4c-2.93-2.34-7.08-2.34-10.01,0l-35,28
			L365,4c-2.93-2.34-7.08-2.34-10.01,0l-35,28L285,4c-2.93-2.34-7.08-2.34-10.01,0l-35,28L205,4c-2.93-2.34-7.08-2.34-10.01,0
			l-35,28L125,4c-2.93-2.34-7.08-2.34-10.01,0L80,32L45,4C42.08,1.66,37.92,1.66,35,4L0,32v13.76c1.77,0,3.54-0.58,5-1.75l35-28
			l35,28c1.46,1.17,3.23,1.75,5,1.75s3.54-0.58,5-1.75l35-28l35,28c1.46,1.17,3.23,1.75,5,1.75s3.54-0.58,5-1.75l35-28l35,28
			c1.46,1.17,3.23,1.75,5,1.75s3.54-0.58,5-1.75l35-28l35,28c1.46,1.17,3.23,1.75,5,1.75s3.54-0.58,5-1.75l35-28l35,28
			c1.46,1.17,3.23,1.75,5,1.75s3.54-0.58,5-1.75l35-28l35,28c1.46,1.17,3.23,1.75,5,1.75s3.54-0.58,5-1.75l35-28l35,28
			c1.46,1.17,3.23,1.75,5,1.75s3.54-0.58,5-1.75l35-28l35,28c1.46,1.17,3.23,1.75,5,1.75s3.54-0.58,5-1.75l35-28l35,28
			c1.46,1.17,3.23,1.75,5,1.75s3.54-0.58,5-1.75l35-28l35,28c1.46,1.17,3.23,1.75,5,1.75V32L765,4z"/>
		<path class="st1" d="M755,52l-35,28l-35-28c-2.93-2.34-7.08-2.34-10.01,0l-35,28l-35-28c-2.93-2.34-7.08-2.34-10.01,0l-35,28
			l-35-28c-2.93-2.34-7.08-2.34-10.01,0l-35,28l-35-28c-2.93-2.34-7.08-2.34-10.01,0l-35,28l-35-28c-2.93-2.34-7.08-2.34-10.01,0
			l-35,28l-35-28c-2.93-2.34-7.08-2.34-10.01,0l-35,28l-35-28c-2.93-2.34-7.08-2.34-10.01,0l-35,28l-35-28
			c-2.93-2.34-7.08-2.34-10.01,0L80,80L45,52c-2.93-2.34-7.08-2.34-10.01,0L0,80v13.76c1.77,0,3.54-0.58,5-1.75l35-28l35,28
			c1.46,1.17,3.23,1.75,5,1.75s3.54-0.58,5-1.75l35-28l35,28c1.46,1.17,3.23,1.75,5,1.75s3.54-0.58,5-1.75l35-28l35,28
			c1.46,1.17,3.23,1.75,5,1.75s3.54-0.58,5-1.75l35-28l35,28c1.46,1.17,3.23,1.75,5,1.75s3.54-0.58,5-1.75l35-28l35,28
			c1.46,1.17,3.23,1.75,5,1.75s3.54-0.58,5-1.75l35-28l35,28c1.46,1.17,3.23,1.75,5,1.75s3.54-0.58,5-1.75l35-28l35,28
			c1.46,1.17,3.23,1.75,5,1.75s3.54-0.58,5-1.75l35-28l35,28c1.46,1.17,3.23,1.75,5,1.75s3.54-0.58,5-1.75l35-28l35,28
			c1.46,1.17,3.23,1.75,5,1.75s3.54-0.58,5-1.75l35-28l35,28c1.46,1.17,3.23,1.75,5,1.75V80l-35-28
			C762.08,49.66,757.92,49.66,755,52z"/>
		<path class="st1" d="M755,100l-35,28l-35-28c-2.93-2.34-7.08-2.34-10.01,0l-35,28l-35-28c-2.93-2.34-7.08-2.34-10.01,0l-35,28
			l-35-28c-2.93-2.34-7.08-2.34-10.01,0l-35,28l-35-28c-2.93-2.34-7.08-2.34-10.01,0l-35,28l-35-28c-2.93-2.34-7.08-2.34-10.01,0
			l-35,28l-35-28c-2.93-2.34-7.08-2.34-10.01,0l-35,28l-35-28c-2.93-2.34-7.08-2.34-10.01,0l-35,28l-35-28
			c-2.93-2.34-7.08-2.34-10.01,0l-35,28l-35-28c-2.93-2.34-7.08-2.34-10.01,0L0,128v13.76c1.77,0,3.54-0.58,5-1.75l35-28l35,28
			c1.46,1.17,3.23,1.75,5,1.75s3.54-0.58,5-1.75l35-28l35,28c1.46,1.17,3.23,1.75,5,1.75s3.54-0.58,5-1.75l35-28l35,28
			c1.46,1.17,3.23,1.75,5,1.75s3.54-0.58,5-1.75l35-28l35,28c1.46,1.17,3.23,1.75,5,1.75s3.54-0.58,5-1.75l35-28l35,28
			c1.46,1.17,3.23,1.75,5,1.75s3.54-0.58,5-1.75l35-28l35,28c1.46,1.17,3.23,1.75,5,1.75s3.54-0.58,5-1.75l35-28l35,28
			c1.46,1.17,3.23,1.75,5,1.75s3.54-0.58,5-1.75l35-28l35,28c1.46,1.17,3.23,1.75,5,1.75s3.54-0.58,5-1.75l35-28l35,28
			c1.46,1.17,3.23,1.75,5,1.75s3.54-0.58,5-1.75l35-28l35,28c1.46,1.17,3.23,1.75,5,1.75V128l-35-28
			C762.08,97.66,757.92,97.66,755,100z"/>
		<path class="st1" d="M755,148l-35,28l-35-28c-2.93-2.34-7.08-2.34-10.01,0l-35,28l-35-28c-2.93-2.34-7.08-2.34-10.01,0l-35,28
			l-35-28c-2.93-2.34-7.08-2.34-10.01,0l-35,28l-35-28c-2.93-2.34-7.08-2.34-10.01,0l-35,28l-35-28c-2.93-2.34-7.08-2.34-10.01,0
			l-35,28l-35-28c-2.93-2.34-7.08-2.34-10.01,0l-35,28l-35-28c-2.93-2.34-7.08-2.34-10.01,0l-35,28l-35-28
			c-2.93-2.34-7.08-2.34-10.01,0l-35,28l-35-28c-2.93-2.34-7.08-2.34-10.01,0L0,176v13.76c1.77,0,3.54-0.58,5-1.75l35-28l35,28
			c1.46,1.17,3.23,1.75,5,1.75s3.54-0.58,5-1.75l35-28l35,28c1.46,1.17,3.23,1.75,5,1.75s3.54-0.58,5-1.75l35-28l35,28
			c1.46,1.17,3.23,1.75,5,1.75s3.54-0.58,5-1.75l35-28l35,28c1.46,1.17,3.23,1.75,5,1.75s3.54-0.58,5-1.75l35-28l35,28
			c1.46,1.17,3.23,1.75,5,1.75s3.54-0.58,5-1.75l35-28l35,28c1.46,1.17,3.23,1.75,5,1.75s3.54-0.58,5-1.75l35-28l35,28
			c1.46,1.17,3.23,1.75,5,1.75s3.54-0.58,5-1.75l35-28l35,28c1.46,1.17,3.23,1.75,5,1.75s3.54-0.58,5-1.75l35-28l35,28
			c1.46,1.17,3.23,1.75,5,1.75s3.54-0.58,5-1.75l35-28l35,28c1.46,1.17,3.23,1.75,5,1.75V176l-35-28
			C762.08,145.66,757.92,145.66,755,148z"/>
		<path class="st1" d="M755,196l-35,28l-35-28c-2.93-2.34-7.08-2.34-10.01,0l-35,28l-35-28c-2.93-2.34-7.08-2.34-10.01,0l-35,28
			l-35-28c-2.93-2.34-7.08-2.34-10.01,0l-35,28l-35-28c-2.93-2.34-7.08-2.34-10.01,0l-35,28l-35-28c-2.93-2.34-7.08-2.34-10.01,0
			l-35,28l-35-28c-2.93-2.34-7.08-2.34-10.01,0l-35,28l-35-28c-2.93-2.34-7.08-2.34-10.01,0l-35,28l-35-28
			c-2.93-2.34-7.08-2.34-10.01,0l-35,28l-35-28c-2.93-2.34-7.08-2.34-10.01,0L0,224v13.76c1.77,0,3.54-0.58,5-1.75l35-28l35,28
			c1.46,1.17,3.23,1.75,5,1.75s3.54-0.58,5-1.75l35-28l35,28c1.46,1.17,3.23,1.75,5,1.75s3.54-0.58,5-1.75l35-28l35,28
			c1.46,1.17,3.23,1.75,5,1.75s3.54-0.58,5-1.75l35-28l35,28c1.46,1.17,3.23,1.75,5,1.75s3.54-0.58,5-1.75l35-28l35,28
			c1.46,1.17,3.23,1.75,5,1.75s3.54-0.58,5-1.75l35-28l35,28c1.46,1.17,3.23,1.75,5,1.75s3.54-0.58,5-1.75l35-28l35,28
			c1.46,1.17,3.23,1.75,5,1.75s3.54-0.58,5-1.75l35-28l35,28c1.46,1.17,3.23,1.75,5,1.75s3.54-0.58,5-1.75l35-28l35,28
			c1.46,1.17,3.23,1.75,5,1.75s3.54-0.58,5-1.75l35-28l35,28c1.46,1.17,3.23,1.75,5,1.75V224l-35-28
			C762.08,193.66,757.92,193.66,755,196z"/>
		<path class="st1" d="M755,244l-35,28l-35-28c-2.93-2.34-7.08-2.34-10.01,0l-35,28l-35-28c-2.93-2.34-7.08-2.34-10.01,0l-35,28
			l-35-28c-2.93-2.34-7.08-2.34-10.01,0l-35,28l-35-28c-2.93-2.34-7.08-2.34-10.01,0l-35,28l-35-28c-2.93-2.34-7.08-2.34-10.01,0
			l-35,28l-35-28c-2.93-2.34-7.08-2.34-10.01,0l-35,28l-35-28c-2.93-2.34-7.08-2.34-10.01,0l-35,28l-35-28
			c-2.93-2.34-7.08-2.34-10.01,0l-35,28l-35-28c-2.93-2.34-7.08-2.34-10.01,0L0,272v13.76c1.77,0,3.54-0.58,5-1.75l35-28l35,28
			c1.46,1.17,3.23,1.75,5,1.75s3.54-0.58,5-1.75l35-28l35,28c1.46,1.17,3.23,1.75,5,1.75s3.54-0.58,5-1.75l35-28l35,28
			c1.46,1.17,3.23,1.75,5,1.75s3.54-0.58,5-1.75l35-28l35,28c1.46,1.17,3.23,1.75,5,1.75s3.54-0.58,5-1.75l35-28l35,28
			c1.46,1.17,3.23,1.75,5,1.75s3.54-0.58,5-1.75l35-28l35,28c1.46,1.17,3.23,1.75,5,1.75s3.54-0.58,5-1.75l35-28l35,28
			c1.46,1.17,3.23,1.75,5,1.75s3.54-0.58,5-1.75l35-28l35,28c1.46,1.17,3.23,1.75,5,1.75s3.54-0.58,5-1.75l35-28l35,28
			c1.46,1.17,3.23,1.75,5,1.75s3.54-0.58,5-1.75l35-28l35,28c1.46,1.17,3.23,1.75,5,1.75V272l-35-28
			C762.08,241.66,757.92,241.66,755,244z"/>
		<path class="st1" d="M755,292l-35,28l-35-28c-2.93-2.34-7.08-2.34-10.01,0l-35,28l-35-28c-2.93-2.34-7.08-2.34-10.01,0l-35,28
			l-35-28c-2.93-2.34-7.08-2.34-10.01,0l-35,28l-35-28c-2.93-2.34-7.08-2.34-10.01,0l-35,28l-35-28c-2.93-2.34-7.08-2.34-10.01,0
			l-35,28l-35-28c-2.93-2.34-7.08-2.34-10.01,0l-35,28l-35-28c-2.93-2.34-7.08-2.34-10.01,0l-35,28l-35-28
			c-2.93-2.34-7.08-2.34-10.01,0l-35,28l-35-28c-2.93-2.34-7.08-2.34-10.01,0L0,320v13.76c1.77,0,3.54-0.58,5-1.75l35-28l35,28
			c1.46,1.17,3.23,1.75,5,1.75s3.54-0.58,5-1.75l35-28l35,28c1.46,1.17,3.23,1.75,5,1.75s3.54-0.58,5-1.75l35-28l35,28
			c1.46,1.17,3.23,1.75,5,1.75s3.54-0.58,5-1.75l35-28l35,28c1.46,1.17,3.23,1.75,5,1.75s3.54-0.58,5-1.75l35-28l35,28
			c1.46,1.17,3.23,1.75,5,1.75s3.54-0.58,5-1.75l35-28l35,28c1.46,1.17,3.23,1.75,5,1.75s3.54-0.58,5-1.75l35-28l35,28
			c1.46,1.17,3.23,1.75,5,1.75s3.54-0.58,5-1.75l35-28l35,28c1.46,1.17,3.23,1.75,5,1.75s3.54-0.58,5-1.75l35-28l35,28
			c1.46,1.17,3.23,1.75,5,1.75s3.54-0.58,5-1.75l35-28l35,28c1.46,1.17,3.23,1.75,5,1.75V320l-35-28
			C762.08,289.66,757.92,289.66,755,292z"/>
		<path class="st1" d="M755,340l-35,28l-35-28c-2.93-2.34-7.08-2.34-10.01,0l-35,28l-35-28c-2.93-2.34-7.08-2.34-10.01,0l-35,28
			l-35-28c-2.93-2.34-7.08-2.34-10.01,0l-35,28l-35-28c-2.93-2.34-7.08-2.34-10.01,0l-35,28l-35-28c-2.93-2.34-7.08-2.34-10.01,0
			l-35,28l-35-28c-2.93-2.34-7.08-2.34-10.01,0l-35,28l-35-28c-2.93-2.34-7.08-2.34-10.01,0l-35,28l-35-28
			c-2.93-2.34-7.08-2.34-10.01,0l-35,28l-35-28c-2.93-2.34-7.08-2.34-10.01,0L0,368v13.76c1.77,0,3.54-0.58,5-1.75l35-28l35,28
			c1.46,1.17,3.23,1.75,5,1.75s3.54-0.58,5-1.75l35-28l35,28c1.46,1.17,3.23,1.75,5,1.75s3.54-0.58,5-1.75l35-28l35,28
			c1.46,1.17,3.23,1.75,5,1.75s3.54-0.58,5-1.75l35-28l35,28c1.46,1.17,3.23,1.75,5,1.75s3.54-0.58,5-1.75l35-28l35,28
			c1.46,1.17,3.23,1.75,5,1.75s3.54-0.58,5-1.75l35-28l35,28c1.46,1.17,3.23,1.75,5,1.75s3.54-0.58,5-1.75l35-28l35,28
			c1.46,1.17,3.23,1.75,5,1.75s3.54-0.58,5-1.75l35-28l35,28c1.46,1.17,3.23,1.75,5,1.75s3.54-0.58,5-1.75l35-28l35,28
			c1.46,1.17,3.23,1.75,5,1.75s3.54-0.58,5-1.75l35-28l35,28c1.46,1.17,3.23,1.75,5,1.75V368l-35-28
			C762.08,337.66,757.92,337.66,755,340z"/>
		<path class="st1" d="M755,388l-35,28l-35-28c-2.93-2.34-7.08-2.34-10.01,0l-35,28l-35-28c-2.93-2.34-7.08-2.34-10.01,0l-35,28
			l-35-28c-2.93-2.34-7.08-2.34-10.01,0l-35,28l-35-28c-2.93-2.34-7.08-2.34-10.01,0l-35,28l-35-28c-2.93-2.34-7.08-2.34-10.01,0
			l-35,28l-35-28c-2.93-2.34-7.08-2.34-10.01,0l-35,28l-35-28c-2.93-2.34-7.08-2.34-10.01,0l-35,28l-35-28
			c-2.93-2.34-7.08-2.34-10.01,0l-35,28l-35-28c-2.93-2.34-7.08-2.34-10.01,0L0,416v13.76c1.77,0,3.54-0.58,5-1.75l35-28l35,28
			c1.46,1.17,3.23,1.75,5,1.75s3.54-0.58,5-1.75l35-28l35,28c1.46,1.17,3.23,1.75,5,1.75s3.54-0.58,5-1.75l35-28l35,28
			c1.46,1.17,3.23,1.75,5,1.75s3.54-0.58,5-1.75l35-28l35,28c1.46,1.17,3.23,1.75,5,1.75s3.54-0.58,5-1.75l35-28l35,28
			c1.46,1.17,3.23,1.75,5,1.75s3.54-0.58,5-1.75l35-28l35,28c1.46,1.17,3.23,1.75,5,1.75s3.54-0.58,5-1.75l35-28l35,28
			c1.46,1.17,3.23,1.75,5,1.75s3.54-0.58,5-1.75l35-28l35,28c1.46,1.17,3.23,1.75,5,1.75s3.54-0.58,5-1.75l35-28l35,28
			c1.46,1.17,3.23,1.75,5,1.75s3.54-0.58,5-1.75l35-28l35,28c1.46,1.17,3.23,1.75,5,1.75V416l-35-28
			C762.08,385.66,757.92,385.66,755,388z"/>
		<path class="st1" d="M755,436l-35,28l-35-28c-2.93-2.34-7.08-2.34-10.01,0l-35,28l-35-28c-2.93-2.34-7.08-2.34-10.01,0l-35,28
			l-35-28c-2.93-2.34-7.08-2.34-10.01,0l-35,28l-35-28c-2.93-2.34-7.08-2.34-10.01,0l-35,28l-35-28c-2.93-2.34-7.08-2.34-10.01,0
			l-35,28l-35-28c-2.93-2.34-7.08-2.34-10.01,0l-35,28l-35-28c-2.93-2.34-7.08-2.34-10.01,0l-35,28l-35-28
			c-2.93-2.34-7.08-2.34-10.01,0l-35,28l-35-28c-2.93-2.34-7.08-2.34-10.01,0L0,464v13.76c1.77,0,3.54-0.58,5-1.75l35-28l35,28
			c1.46,1.17,3.23,1.75,5,1.75s3.54-0.58,5-1.75l35-28l35,28c1.46,1.17,3.23,1.75,5,1.75s3.54-0.58,5-1.75l35-28l35,28
			c1.46,1.17,3.23,1.75,5,1.75s3.54-0.58,5-1.75l35-28l35,28c1.46,1.17,3.23,1.75,5,1.75s3.54-0.58,5-1.75l35-28l35,28
			c1.46,1.17,3.23,1.75,5,1.75s3.54-0.58,5-1.75l35-28l35,28c1.46,1.17,3.23,1.75,5,1.75s3.54-0.58,5-1.75l35-28l35,28
			c1.46,1.17,3.23,1.75,5,1.75s3.54-0.58,5-1.75l35-28l35,28c1.46,1.17,3.23,1.75,5,1.75s3.54-0.58,5-1.75l35-28l35,28
			c1.46,1.17,3.23,1.75,5,1.75s3.54-0.58,5-1.75l35-28l35,28c1.46,1.17,3.23,1.75,5,1.75V464l-35-28
			C762.08,433.66,757.92,433.66,755,436z"/>
		<path class="st1" d="M755,484l-35,28l-35-28c-2.93-2.34-7.08-2.34-10.01,0l-35,28l-35-28c-2.93-2.34-7.08-2.34-10.01,0l-35,28
			l-35-28c-2.93-2.34-7.08-2.34-10.01,0l-35,28l-35-28c-2.93-2.34-7.08-2.34-10.01,0l-35,28l-35-28c-2.93-2.34-7.08-2.34-10.01,0
			l-35,28l-35-28c-2.93-2.34-7.08-2.34-10.01,0l-35,28l-35-28c-2.93-2.34-7.08-2.34-10.01,0l-35,28l-35-28
			c-2.93-2.34-7.08-2.34-10.01,0l-35,28l-35-28c-2.93-2.34-7.08-2.34-10.01,0L0,512v13.76c1.77,0,3.54-0.58,5-1.75l35-28l35,28
			c1.46,1.17,3.23,1.75,5,1.75s3.54-0.58,5-1.75l35-28l35,28c1.46,1.17,3.23,1.75,5,1.75s3.54-0.58,5-1.75l35-28l35,28
			c1.46,1.17,3.23,1.75,5,1.75s3.54-0.58,5-1.75l35-28l35,28c1.46,1.17,3.23,1.75,5,1.75s3.54-0.58,5-1.75l35-28l35,28
			c1.46,1.17,3.23,1.75,5,1.75s3.54-0.58,5-1.75l35-28l35,28c1.46,1.17,3.23,1.75,5,1.75s3.54-0.58,5-1.75l35-28l35,28
			c1.46,1.17,3.23,1.75,5,1.75s3.54-0.58,5-1.75l35-28l35,28c1.46,1.17,3.23,1.75,5,1.75s3.54-0.58,5-1.75l35-28l35,28
			c1.46,1.17,3.23,1.75,5,1.75s3.54-0.58,5-1.75l35-28l35,28c1.46,1.17,3.23,1.75,5,1.75V512l-35-28
			C762.08,481.66,757.92,481.66,755,484z"/>
		<path class="st1" d="M755,532l-35,28l-35-28c-2.93-2.34-7.08-2.34-10.01,0l-35,28l-35-28c-2.93-2.34-7.08-2.34-10.01,0l-35,28
			l-35-28c-2.93-2.34-7.08-2.34-10.01,0l-35,28l-35-28c-2.93-2.34-7.08-2.34-10.01,0l-35,28l-35-28c-2.93-2.34-7.08-2.34-10.01,0
			l-35,28l-35-28c-2.93-2.34-7.08-2.34-10.01,0l-35,28l-35-28c-2.93-2.34-7.08-2.34-10.01,0l-35,28l-35-28
			c-2.93-2.34-7.08-2.34-10.01,0l-35,28l-35-28c-2.93-2.34-7.08-2.34-10.01,0L0,560v13.76c1.77,0,3.54-0.58,5-1.75l35-28l35,28
			c1.46,1.17,3.23,1.75,5,1.75s3.54-0.58,5-1.75l35-28l35,28c1.46,1.17,3.23,1.75,5,1.75s3.54-0.58,5-1.75l35-28l35,28
			c1.46,1.17,3.23,1.75,5,1.75s3.54-0.58,5-1.75l35-28l35,28c1.46,1.17,3.23,1.75,5,1.75s3.54-0.58,5-1.75l35-28l35,28
			c1.46,1.17,3.23,1.75,5,1.75s3.54-0.58,5-1.75l35-28l35,28c1.46,1.17,3.23,1.75,5,1.75s3.54-0.58,5-1.75l35-28l35,28
			c1.46,1.17,3.23,1.75,5,1.75s3.54-0.58,5-1.75l35-28l35,28c1.46,1.17,3.23,1.75,5,1.75s3.54-0.58,5-1.75l35-28l35,28
			c1.46,1.17,3.23,1.75,5,1.75s3.54-0.58,5-1.75l35-28l35,28c1.46,1.17,3.23,1.75,5,1.75V560l-35-28
			C762.08,529.66,757.92,529.66,755,532z"/>
		<path class="st1" d="M755,580l-35,28l-35-28c-2.93-2.34-7.08-2.34-10.01,0l-35,28l-35-28c-2.93-2.34-7.08-2.34-10.01,0l-35,28
			l-35-28c-2.93-2.34-7.08-2.34-10.01,0l-35,28l-35-28c-2.93-2.34-7.08-2.34-10.01,0l-35,28l-35-28c-2.93-2.34-7.08-2.34-10.01,0
			l-35,28l-35-28c-2.93-2.34-7.08-2.34-10.01,0l-35,28l-35-28c-2.93-2.34-7.08-2.34-10.01,0l-35,28l-35-28
			c-2.93-2.34-7.08-2.34-10.01,0l-35,28l-35-28c-2.93-2.34-7.08-2.34-10.01,0L0,608v13.76c1.77,0,3.54-0.58,5-1.75l35-28l35,28
			c1.46,1.17,3.23,1.75,5,1.75s3.54-0.58,5-1.75l35-28l35,28c1.46,1.17,3.23,1.75,5,1.75s3.54-0.58,5-1.75l35-28l35,28
			c1.46,1.17,3.23,1.75,5,1.75s3.54-0.58,5-1.75l35-28l35,28c1.46,1.17,3.23,1.75,5,1.75s3.54-0.58,5-1.75l35-28l35,28
			c1.46,1.17,3.23,1.75,5,1.75s3.54-0.58,5-1.75l35-28l35,28c1.46,1.17,3.23,1.75,5,1.75s3.54-0.58,5-1.75l35-28l35,28
			c1.46,1.17,3.23,1.75,5,1.75s3.54-0.58,5-1.75l35-28l35,28c1.46,1.17,3.23,1.75,5,1.75s3.54-0.58,5-1.75l35-28l35,28
			c1.46,1.17,3.23,1.75,5,1.75s3.54-0.58,5-1.75l35-28l35,28c1.46,1.17,3.23,1.75,5,1.75V608l-35-28
			C762.08,577.66,757.92,577.66,755,580z"/>
		<path class="st1" d="M755,628l-35,28l-35-28c-2.93-2.34-7.08-2.34-10.01,0l-35,28l-35-28c-2.93-2.34-7.08-2.34-10.01,0l-35,28
			l-35-28c-2.93-2.34-7.08-2.34-10.01,0l-35,28l-35-28c-2.93-2.34-7.08-2.34-10.01,0l-35,28l-35-28c-2.93-2.34-7.08-2.34-10.01,0
			l-35,28l-35-28c-2.93-2.34-7.08-2.34-10.01,0l-35,28l-35-28c-2.93-2.34-7.08-2.34-10.01,0l-35,28l-35-28
			c-2.93-2.34-7.08-2.34-10.01,0l-35,28l-35-28c-2.93-2.34-7.08-2.34-10.01,0L0,656v13.76c1.77,0,3.54-0.58,5-1.75l35-28l35,28
			c1.46,1.17,3.23,1.75,5,1.75s3.54-0.58,5-1.75l35-28l35,28c1.46,1.17,3.23,1.75,5,1.75s3.54-0.58,5-1.75l35-28l35,28
			c1.46,1.17,3.23,1.75,5,1.75s3.54-0.58,5-1.75l35-28l35,28c1.46,1.17,3.23,1.75,5,1.75s3.54-0.58,5-1.75l35-28l35,28
			c1.46,1.17,3.23,1.75,5,1.75s3.54-0.58,5-1.75l35-28l35,28c1.46,1.17,3.23,1.75,5,1.75s3.54-0.58,5-1.75l35-28l35,28
			c1.46,1.17,3.23,1.75,5,1.75s3.54-0.58,5-1.75l35-28l35,28c1.46,1.17,3.23,1.75,5,1.75s3.54-0.58,5-1.75l35-28l35,28
			c1.46,1.17,3.23,1.75,5,1.75s3.54-0.58,5-1.75l35-28l35,28c1.46,1.17,3.23,1.75,5,1.75V656l-35-28
			C762.08,625.66,757.92,625.66,755,628z"/>
		<path class="st1" d="M755,676l-35,28l-35-28c-2.93-2.34-7.08-2.34-10.01,0l-35,28l-35-28c-2.93-2.34-7.08-2.34-10.01,0l-35,28
			l-35-28c-2.93-2.34-7.08-2.34-10.01,0l-35,28l-35-28c-2.93-2.34-7.08-2.34-10.01,0l-35,28l-35-28c-2.93-2.34-7.08-2.34-10.01,0
			l-35,28l-35-28c-2.93-2.34-7.08-2.34-10.01,0l-35,28l-35-28c-2.93-2.34-7.08-2.34-10.01,0l-35,28l-35-28
			c-2.93-2.34-7.08-2.34-10.01,0l-35,28l-35-28c-2.93-2.34-7.08-2.34-10.01,0L0,704v13.76c1.77,0,3.54-0.58,5-1.75l35-28l35,28
			c1.46,1.17,3.23,1.75,5,1.75s3.54-0.58,5-1.75l35-28l35,28c1.46,1.17,3.23,1.75,5,1.75s3.54-0.58,5-1.75l35-28l35,28
			c1.46,1.17,3.23,1.75,5,1.75s3.54-0.58,5-1.75l35-28l35,28c1.46,1.17,3.23,1.75,5,1.75s3.54-0.58,5-1.75l35-28l35,28
			c1.46,1.17,3.23,1.75,5,1.75s3.54-0.58,5-1.75l35-28l35,28c1.46,1.17,3.23,1.75,5,1.75s3.54-0.58,5-1.75l35-28l35,28
			c1.46,1.17,3.23,1.75,5,1.75s3.54-0.58,5-1.75l35-28l35,28c1.46,1.17,3.23,1.75,5,1.75s3.54-0.58,5-1.75l35-28l35,28
			c1.46,1.17,3.23,1.75,5,1.75s3.54-0.58,5-1.75l35-28l35,28c1.46,1.17,3.23,1.75,5,1.75V704l-35-28
			C762.08,673.66,757.92,673.66,755,676z"/>
		<path class="st1" d="M755,724l-35,28l-35-28c-2.93-2.34-7.08-2.34-10.01,0l-35,28l-35-28c-2.93-2.34-7.08-2.34-10.01,0l-35,28
			l-35-28c-2.93-2.34-7.08-2.34-10.01,0l-35,28l-35-28c-2.93-2.34-7.08-2.34-10.01,0l-35,28l-35-28c-2.93-2.34-7.08-2.34-10.01,0
			l-35,28l-35-28c-2.93-2.34-7.08-2.34-10.01,0l-35,28l-35-28c-2.93-2.34-7.08-2.34-10.01,0l-35,28l-35-28
			c-2.93-2.34-7.08-2.34-10.01,0l-35,28l-35-28c-2.93-2.34-7.08-2.34-10.01,0L0,752v13.76c1.77,0,3.54-0.58,5-1.75l35-28l35,28
			c1.46,1.17,3.23,1.75,5,1.75s3.54-0.58,5-1.75l35-28l35,28c1.46,1.17,3.23,1.75,5,1.75s3.54-0.58,5-1.75l35-28l35,28
			c1.46,1.17,3.23,1.75,5,1.75s3.54-0.58,5-1.75l35-28l35,28c1.46,1.17,3.23,1.75,5,1.75s3.54-0.58,5-1.75l35-28l35,28
			c1.46,1.17,3.23,1.75,5,1.75s3.54-0.58,5-1.75l35-28l35,28c1.46,1.17,3.23,1.75,5,1.75s3.54-0.58,5-1.75l35-28l35,28
			c1.46,1.17,3.23,1.75,5,1.75s3.54-0.58,5-1.75l35-28l35,28c1.46,1.17,3.23,1.75,5,1.75s3.54-0.58,5-1.75l35-28l35,28
			c1.46,1.17,3.23,1.75,5,1.75s3.54-0.58,5-1.75l35-28l35,28c1.46,1.17,3.23,1.75,5,1.75V752l-35-28
			C762.08,721.66,757.92,721.66,755,724z"/>
		<path class="st1" d="M755,772l-35,28l-35-28c-2.93-2.34-7.08-2.34-10.01,0l-35,28l-35-28c-2.93-2.34-7.08-2.34-10.01,0l-35,28
			l-35-28c-2.93-2.34-7.08-2.34-10.01,0l-35,28l-35-28c-2.93-2.34-7.08-2.34-10.01,0l-35,28l-35-28c-2.93-2.34-7.08-2.34-10.01,0
			l-35,28l-35-28c-2.93-2.34-7.08-2.34-10.01,0l-35,28l-35-28c-2.93-2.34-7.08-2.34-10.01,0l-35,28l-35-28
			c-2.93-2.34-7.08-2.34-10.01,0l-35,28l-35-28c-2.93-2.34-7.08-2.34-10.01,0L0,800v13.76c1.77,0,3.54-0.58,5-1.75l35-28l35,28
			c1.46,1.17,3.23,1.75,5,1.75s3.54-0.58,5-1.75l35-28l35,28c1.46,1.17,3.23,1.75,5,1.75s3.54-0.58,5-1.75l35-28l35,28
			c1.46,1.17,3.23,1.75,5,1.75s3.54-0.58,5-1.75l35-28l35,28c1.46,1.17,3.23,1.75,5,1.75s3.54-0.58,5-1.75l35-28l35,28
			c1.46,1.17,3.23,1.75,5,1.75s3.54-0.58,5-1.75l35-28l35,28c1.46,1.17,3.23,1.75,5,1.75s3.54-0.58,5-1.75l35-28l35,28
			c1.46,1.17,3.23,1.75,5,1.75s3.54-0.58,5-1.75l35-28l35,28c1.46,1.17,3.23,1.75,5,1.75s3.54-0.58,5-1.75l35-28l35,28
			c1.46,1.17,3.23,1.75,5,1.75s3.54-0.58,5-1.75l35-28l35,28c1.46,1.17,3.23,1.75,5,1.75V800l-35-28
			C762.08,769.66,757.92,769.66,755,772z"/>
	</g>
</g>
<g>
</g>
<g>
</g>
<g>
</g>
<g>
</g>
<g>
</g>
<g>
</g>
<g>
</g>
<g>
</g>
<g>
</g>
<g>
</g>
<g>
</g>
<g>
</g>
<g>
</g>
<g>
</g>
<g>
</g>
</svg>
